<svg width="20" height="20" viewBox="0 0 20 20" fill="none" xmlns="http://www.w3.org/2000/svg">
<g clip-path="url(#clip0_1232_1425)">
<path d="M13.0302 6.91074C13.3542 7.23618 13.3542 7.76381 13.0302 8.08925L11.1281 9.99999L13.0302 11.9107C13.3542 12.2362 13.3542 12.7638 13.0302 13.0892C12.7063 13.4147 12.181 13.4147 11.857 13.0892L9.95492 11.1785L8.05279 13.0892C7.72882 13.4147 7.20356 13.4147 6.87959 13.0892C6.55562 12.7638 6.55562 12.2362 6.87959 11.9107L8.78172 9.99999L6.87959 8.08925C6.55562 7.76381 6.55562 7.23618 6.87959 6.91074C7.20356 6.5853 7.72882 6.5853 8.05279 6.91074L9.95492 8.82148L11.857 6.91074C12.181 6.5853 12.7063 6.5853 13.0302 6.91074Z" fill="#253545"/>
<path fill-rule="evenodd" clip-rule="evenodd" d="M9.95492 0.833328C4.91514 0.833328 0.82959 4.93738 0.82959 9.99999C0.82959 15.0626 4.91514 19.1667 9.95492 19.1667C14.9947 19.1667 19.0802 15.0626 19.0802 9.99999C19.0802 4.93738 14.9947 0.833328 9.95492 0.833328ZM2.48874 9.99999C2.48874 5.85786 5.83146 2.49999 9.95492 2.49999C14.0784 2.49999 17.4211 5.85786 17.4211 9.99999C17.4211 14.1421 14.0784 17.5 9.95492 17.5C5.83146 17.5 2.48874 14.1421 2.48874 9.99999Z" fill="#253545"/>
</g>
<defs>
<clipPath id="clip0_1232_1425">
<rect width="19.9098" height="20" fill="white"/>
</clipPath>
</defs>
</svg>
